<?xml version="1.0" encoding="UTF-8" standalone="no"?>
<!-- Created with Inkscape (http://www.inkscape.org/) -->

<svg
   width="77.907143mm"
   height="29.733589mm"
   viewBox="0 0 77.907143 29.733589"
   version="1.1"
   id="svg5"
   xml:space="preserve"
   xmlns="http://www.w3.org/2000/svg"
   xmlns:svg="http://www.w3.org/2000/svg"><defs
     id="defs2" /><g
     id="layer1"
     transform="translate(-69.201502,-109.78266)"><text
       xml:space="preserve"
       style="font-size:10.5516px;fill:#ffffff;stroke-width:0;stroke-linecap:round;stroke-linejoin:round;stroke-miterlimit:6.5;paint-order:stroke fill markers"
       x="72.465286"
       y="153.95311"
       id="text558"
       transform="scale(1.2597824,0.79378788)"><tspan
         id="tspan556"
         style="fill:#008000;stroke-width:0"
         x="72.465286"
         y="153.95311">BioDent</tspan></text><text
       xml:space="preserve"
       style="font-size:4.87865px;fill:#008000;stroke-width:0;stroke-linecap:round;stroke-linejoin:round;stroke-miterlimit:6.5;paint-order:stroke fill markers"
       x="96.578804"
       y="122.74841"
       id="text664"
       transform="scale(0.94097844,1.0627236)"><tspan
         id="tspan662"
         style="fill:#ff6600;stroke-width:0"
         x="96.578804"
         y="122.74841">Medical-Dental-Wellness</tspan></text><ellipse
       style="fill:#008000;stroke-width:0;stroke-linecap:round;stroke-linejoin:round;stroke-miterlimit:6.5;paint-order:stroke fill markers"
       id="path837"
       cx="143.80885"
       cy="114.13738"
       rx="2.2023304"
       ry="2.2416577" /><ellipse
       style="fill:#ffffff;stroke-width:0;stroke-linecap:round;stroke-linejoin:round;stroke-miterlimit:6.5;paint-order:stroke fill markers"
       id="path891"
       ry="1.887712"
       rx="1.8090572"
       cy="114.1767"
       cx="143.80885" /><text
       xml:space="preserve"
       style="font-size:3.39611px;fill:#ffffff;stroke-width:0;stroke-linecap:round;stroke-linejoin:round;stroke-miterlimit:6.5;paint-order:stroke fill markers"
       x="133.22745"
       y="123.264"
       id="text895"
       transform="scale(1.0696422,0.93489206)"><tspan
         id="tspan893"
         style="fill:#008000;stroke-width:0"
         x="133.22745"
         y="123.264">R</tspan></text><path
       style="fill:#008000;stroke-width:0;stroke-linecap:round;stroke-linejoin:round;stroke-miterlimit:6.5;paint-order:stroke fill markers"
       d="m 99.722935,114.72728 c 15.255475,-6.12733 27.724475,-5.88834 39.248685,-2.91023 0.84608,0.29113 0.43693,0.77 -0.31463,0.62924 -12.75484,-1.85527 -20.76225,-1.2056 -35.07997,1.80906 -1.79487,0.35217 -4.903561,0.87996 -3.854085,0.47193 z"
       id="path1336" /><path
       style="fill:#008000;stroke-width:0;stroke-linecap:round;stroke-linejoin:round;stroke-miterlimit:6.5;paint-order:stroke fill markers"
       d="m 91.424863,124.48046 c 4.654331,-0.72993 6.181544,-1.01177 10.461077,-0.98318 4.61912,0.0391 11.47915,1.97624 18.16922,1.76973 1.55264,-0.0884 17.61041,-0.86822 26.4673,-0.55058 0.98318,0.0524 0.55059,0.69478 0,0.62923 -9.08068,-0.53616 -25.51474,0.97018 -28.07972,0.90453 -2.85177,-0.0617 -10.66099,-0.9996 -14.78707,-1.49444 -2.38586,-0.23947 -6.974055,-0.23331 -11.680225,0.19664 -0.870948,0.0912 -1.252411,-0.28809 -0.550582,-0.47193 z"
       id="path1392" /><path
       style="fill:#008000;stroke-width:0;stroke-linecap:round;stroke-linejoin:round;stroke-miterlimit:6.5;paint-order:stroke fill markers"
       d="m 91.768453,132.25781 c -0.725615,0.43138 -0.474368,0.642 0.255048,0.45727 3.979745,-1.166 9.276249,-0.38219 11.313339,-0.0123 6.51274,1.45511 12.70235,1.2946 18.79863,0.6674 7.47584,-0.6997 14.75791,-0.8181 22.13567,-1.22358 0.65924,-0.0363 0.938,-0.54592 0.22246,-0.55617 l -18.34019,0.57526 c -5.89452,0.29934 -12.05195,0.83248 -18.25595,0.20338 -5.32816,-0.47068 -13.316245,-1.46361 -16.129007,-0.11123 z"
       id="path1394" /><path
       style="fill:#008000;stroke-width:0;stroke-linecap:round;stroke-linejoin:round;stroke-miterlimit:6.5;paint-order:stroke fill markers"
       d="m 77.47482,110.45585 c -5.292069,-0.849 -10.132418,-1.1104 -7.563945,9.6774 0.963886,3.19141 1.541831,6.30266 1.6129,9.23246 0.106672,4.3012 0.121462,8.64035 3.559503,9.89987 0.674049,0.24896 0.748975,-0.20486 0.333703,-0.55617 -2.335862,-1.71924 -2.811105,-5.05102 -2.947712,-8.67629 -0.193712,-5.00841 -1.777931,-10.11611 -2.002221,-11.62401 -0.91694,-8.68932 3.707231,-6.47668 6.840921,-7.39709 0.45441,-0.14499 0.63757,-0.42058 0.166851,-0.55617 z"
       id="path1396" /><path
       style="fill:#008000;stroke-width:0;stroke-linecap:round;stroke-linejoin:round;stroke-miterlimit:6.5;paint-order:stroke fill markers"
       d="m 78.564827,129.35705 c -0.766033,1.42047 -1.139594,3.87119 -1.494441,6.37103 -0.02622,0.18353 -0.249077,0.33428 -0.314619,0.15731 -0.238672,-2.36028 0.06273,-4.95007 1.415786,-7.00027 0.290949,-0.3527 0.6477,0.0538 0.393274,0.47193 z"
       id="path1398" /><path
       style="fill:#008000;stroke-width:0;stroke-linecap:round;stroke-linejoin:round;stroke-miterlimit:6.5;paint-order:stroke fill markers"
       d="m 78.741799,126.23053 c 0.377483,0.22661 0.805084,0.94543 1.120829,2.14333 0.314618,1.16671 0.576899,1.9027 2.025356,9.87116 0.144657,0.52565 0.647402,0.70108 0.707894,0.35396 l -1.671413,-11.07065 c -0.296518,-1.72289 -1.12281,-1.88502 -2.084347,-1.92704 -0.562742,0.0134 -0.446144,0.41283 -0.09832,0.62924 z"
       id="path1400" /><path
       style="fill:#008000;stroke-width:0;stroke-linecap:round;stroke-linejoin:round;stroke-miterlimit:6.5;paint-order:stroke fill markers"
       d="m 83.425865,139.0153 c -0.399763,0.38122 -0.03809,0.66842 0.389322,0.38932 2.988048,-2.42618 3.668316,-5.32273 4.03225,-8.25916 0.574711,-3.07749 0.917684,-5.7842 1.612899,-8.12011 0.424632,-1.52208 4.212127,-6.6455 -0.472746,-10.84537 -0.301605,-0.26455 -0.445723,0.12899 -0.22247,0.47275 1.546302,2.81275 1.733247,5.36513 0.750835,7.7308 -0.332946,0.86831 -1.493756,5.47299 -2.474969,12.01332 -0.33709,1.96829 -2.006025,5.26531 -3.615121,6.61845 z"
       id="path1402" /><path
       style="fill:#008000;stroke-width:0;stroke-linecap:round;stroke-linejoin:round;stroke-miterlimit:6.5;paint-order:stroke fill markers"
       d="m 79.782937,111.40134 c -0.525514,-0.0506 -0.688243,0.54465 0.250277,0.58398 1.437774,0.049 3.032935,-0.54391 4.504997,-0.88987 1.39283,-0.30452 2.155623,-0.0578 2.975522,0.13904 0.497097,0.13128 0.75696,-0.12319 0.472747,-0.3337 -0.701117,-0.4706 -2.255406,-0.66574 -3.754165,-0.19466 -1.314395,0.42331 -2.845882,0.82458 -4.449378,0.69521 z"
       id="path1495" /><path
       style="fill:#008000;stroke-width:0;stroke-linecap:round;stroke-linejoin:round;stroke-miterlimit:6.5;paint-order:stroke fill markers"
       d="m 71.412541,123.24781 c 3.75226,-0.88406 5.963942,-0.46052 8.398203,-0.11123 2.698697,0.5096 6.268799,0.73209 9.121227,0.11123 0.905424,-2.5865 2.001032,-5.65251 1.334815,-7.95326 -3.071202,0.32365 -8.108137,0.38019 -9.844251,-0.0556 -2.435104,-0.54172 -5.968967,-1.978 -10.177957,-0.38932 -0.328965,2.7994 0.323202,5.5988 1.167963,8.3982 z"
       id="path1537" /><g
       id="g1505"
       transform="matrix(1.0195213,0,0,0.99999999,-2.5897981,-9.2324625)"><text
         xml:space="preserve"
         style="font-size:7.95165px;fill:#ffffff;stroke-width:0;stroke-linecap:round;stroke-linejoin:round;stroke-miterlimit:6.5;paint-order:stroke fill markers"
         x="72.062599"
         y="131.1862"
         id="text379"
         transform="scale(0.9999427,1.0000573)"><tspan
           id="tspan377"
           style="fill:#ffffff;stroke-width:0"
           x="72.062599"
           y="131.1862">F rst</tspan></text><path
         style="fill:#ffffff;stroke-width:0;stroke-linecap:round;stroke-linejoin:round;stroke-miterlimit:6.5;paint-order:stroke fill markers"
         id="path959"
         d="m 79.588275,125.55592 a 1.0567276,1.251388 0 0 1 -0.144378,0.63141" /><path
         style="fill:#ffffff;stroke-width:0;stroke-linecap:round;stroke-linejoin:round;stroke-miterlimit:6.5;paint-order:stroke fill markers"
         id="path963"
         d="m 79.866375,125.83403 a 1.4182397,1.4182397 0 0 1 -1.417589,1.41824 1.4182397,1.4182397 0 0 1 -1.41889,-1.41694 1.4182397,1.4182397 0 0 1 1.416286,-1.41954 1.4182397,1.4182397 0 0 1 1.420191,1.41564 l -1.418238,0.003 z" /><rect
         style="fill:#ffffff;stroke-width:0;stroke-linecap:round;stroke-linejoin:round;stroke-miterlimit:6.5;paint-order:stroke fill markers"
         id="rect1017"
         width="0.7786414"
         height="3.7263556"
         x="77.919762"
         y="127.53033" /><path
         style="fill:#ff6600;stroke-width:0;stroke-linecap:round;stroke-linejoin:round;stroke-miterlimit:6.5;paint-order:stroke fill markers"
         d="m 77.391395,124.88852 c -0.194535,0.2031 -0.342406,0.57119 -0.292837,0.53672 0.199745,-0.13889 0.315211,-0.19525 0.435898,-0.25367 0.598193,-0.28954 1.207852,0.0174 0.830239,0.8571 -0.262948,0.62391 0.615716,1.27886 1.084538,0.87598 1.440705,-1.30104 -0.585021,-3.44217 -2.057838,-2.01613 z"
         id="path1127" /><path
         style="fill:#ffffff;stroke-width:0;stroke-linecap:round;stroke-linejoin:round;stroke-miterlimit:6.5;paint-order:stroke fill markers"
         id="path1234"
         d="m 78.837664,126.30306 a 0.28503838,0.27113408 0 0 1 0.294131,-0.26034 0.28503838,0.27113408 0 0 1 0.275629,0.27805 0.28503838,0.27113408 0 0 1 -0.290473,0.26403 0.28503838,0.27113408 0 0 1 -0.279484,-0.27455" /><path
         style="fill:#ff6600;stroke-width:0;stroke-linecap:round;stroke-linejoin:round;stroke-miterlimit:6.5;paint-order:stroke fill markers"
         id="path1313"
         d="m 78.045092,125.69507 a 0.26545948,0.27037537 0 0 1 -0.265338,0.27037 0.26545948,0.27037537 0 0 1 -0.265581,-0.27012 0.26545948,0.27037537 0 0 1 0.265094,-0.27063 0.26545948,0.27037537 0 0 1 0.265825,0.26988 l -0.265459,5e-4 z" /></g></g></svg>
