<?xml version="1.0" encoding="UTF-8" standalone="no"?>
<!-- Created with Inkscape (http://www.inkscape.org/) -->

<svg
   width="77.90715mm"
   height="29.73358mm"
   viewBox="0 0 77.907151 29.733579"
   version="1.1"
   id="svg5"
   xml:space="preserve"
   xmlns="http://www.w3.org/2000/svg"
   xmlns:svg="http://www.w3.org/2000/svg"><defs
     id="defs2" /><g
     id="layer1"
     transform="translate(-69.2015,-109.78266)"><g
       aria-label="BioDent"
       transform="scale(1.2597824,0.79378788)"
       id="text558"
       style="font-size:10.5516px;fill:#ffffff;stroke-width:0;stroke-linecap:round;stroke-linejoin:round;stroke-miterlimit:6.5;paint-order:stroke fill markers"><path
         d="m 79.281579,151.59343 q 0,0.57188 -0.21639,1.00982 -0.216391,0.43793 -0.582193,0.7213 -0.432781,0.34004 -0.953148,0.4843 -0.515214,0.14426 -1.313798,0.14426 h -2.720334 v -7.67155 h 2.272098 q 0.8398,0 1.257124,0.0618 0.417324,0.0618 0.798583,0.2576 0.422476,0.22155 0.613106,0.57189 0.190629,0.3452 0.190629,0.8295 0,0.54613 -0.278216,0.93254 -0.278216,0.38126 -0.741909,0.6131 v 0.0412 q 0.777974,0.15972 1.226211,0.68524 0.448237,0.52036 0.448237,1.31895 z m -1.715666,-3.4571 q 0,-0.27821 -0.09274,-0.46884 -0.09274,-0.19063 -0.298825,-0.30913 -0.242151,-0.13911 -0.587345,-0.17002 -0.345194,-0.0361 -0.855256,-0.0361 h -1.215908 v 2.21543 h 1.31895 q 0.47915,0 0.762518,-0.0464 0.283369,-0.0515 0.52552,-0.20609 0.242151,-0.15456 0.340041,-0.39671 0.103043,-0.24731 0.103043,-0.5822 z m 0.654323,3.49831 q 0,-0.46369 -0.139108,-0.73675 -0.139108,-0.27307 -0.50491,-0.4637 -0.247303,-0.1288 -0.602802,-0.16487 -0.350346,-0.0412 -0.855256,-0.0412 h -1.602319 v 2.85429 h 1.349863 q 0.66978,0 1.097408,-0.067 0.427628,-0.0721 0.700692,-0.25761 0.288521,-0.20093 0.422476,-0.45854 0.133956,-0.25761 0.133956,-0.66463 z"
         style="fill:#008000"
         id="path323" /><path
         d="m 81.692785,147.23471 h -1.092256 v -1.00467 h 1.092256 z m -0.06183,6.7184 h -0.968604 v -5.75495 h 0.968604 z"
         style="fill:#008000"
         id="path325" /><path
         d="m 88.452404,151.07821 q 0,1.40654 -0.721301,2.22058 -0.721301,0.81404 -1.932056,0.81404 -1.221059,0 -1.94236,-0.81404 -0.716148,-0.81404 -0.716148,-2.22058 0,-1.40654 0.716148,-2.22058 0.721301,-0.81919 1.94236,-0.81919 1.210755,0 1.932056,0.81919 0.721301,0.81404 0.721301,2.22058 z m -0.999517,0 q 0,-1.11802 -0.437933,-1.65899 -0.437932,-0.54613 -1.215907,-0.54613 -0.788278,0 -1.226211,0.54613 -0.432781,0.54097 -0.432781,1.65899 0,1.08195 0.437933,1.64354 0.437933,0.55643 1.221059,0.55643 0.772823,0 1.210755,-0.55128 0.443085,-0.55643 0.443085,-1.64869 z"
         style="fill:#008000"
         id="path327" /><path
         d="m 96.510364,150.12506 q 0,1.04589 -0.458541,1.89599 -0.453389,0.85011 -1.210755,1.31895 -0.525519,0.32459 -1.17469,0.46885 -0.644019,0.14426 -1.700209,0.14426 h -1.937208 v -7.67155 h 1.916599 q 1.123169,0 1.782644,0.16487 0.664627,0.15972 1.123168,0.44308 0.783127,0.48946 1.221059,1.3035 0.437933,0.81404 0.437933,1.93205 z m -1.066495,-0.0154 q 0,-0.90163 -0.314281,-1.51989 -0.314281,-0.61825 -0.937691,-0.97375 -0.453389,-0.25761 -0.963452,-0.3555 -0.510062,-0.10304 -1.221059,-0.10304 h -0.958299 v 5.91981 h 0.958299 q 0.736757,0 1.282885,-0.10819 0.55128,-0.1082 1.009821,-0.40187 0.571889,-0.3658 0.855257,-0.96345 0.28852,-0.59765 0.28852,-1.49412 z"
         style="fill:#008000"
         id="path329" /><path
         d="m 102.89903,151.1761 h -4.24022 q 0,0.53067 0.159717,0.92739 0.159716,0.39156 0.437932,0.64402 0.267912,0.2473 0.633715,0.37095 0.370956,0.12365 0.814036,0.12365 0.58735,0 1.17985,-0.23184 0.59764,-0.237 0.8501,-0.4637 h 0.0515 v 1.05619 q -0.48945,0.20609 -0.99952,0.3452 -0.51006,0.13911 -1.07164,0.13911 -1.4323,0 -2.236035,-0.77283 -0.803735,-0.77797 -0.803735,-2.20512 0,-1.41169 0.76767,-2.24118 0.772822,-0.8295 2.02995,-0.8295 1.16438,0 1.79294,0.68009 0.63372,0.68008 0.63372,1.93205 z m -0.94284,-0.74191 q -0.005,-0.76252 -0.38642,-1.17984 -0.3761,-0.41732 -1.14892,-0.41732 -0.777979,0 -1.241673,0.45854 -0.458541,0.45854 -0.520367,1.13862 z"
         style="fill:#008000"
         id="path331" /><path
         d="m 109.1795,153.95311 h -0.96861 v -3.27677 q 0,-0.39671 -0.0464,-0.74191 -0.0464,-0.35034 -0.17002,-0.54612 -0.1288,-0.21639 -0.37095,-0.31944 -0.24215,-0.10819 -0.62856,-0.10819 -0.39672,0 -0.8295,0.19578 -0.43278,0.19578 -0.82949,0.49976 v 4.29689 h -0.96861 v -5.75495 h 0.96861 v 0.63887 q 0.45338,-0.37611 0.93769,-0.58735 0.4843,-0.21124 0.99436,-0.21124 0.93254,0 1.42199,0.56159 0.48946,0.56158 0.48946,1.61777 z"
         style="fill:#008000"
         id="path333" /><path
         d="m 114.03282,153.90159 q -0.27306,0.0721 -0.59765,0.1185 -0.31943,0.0464 -0.57189,0.0464 -0.88101,0 -1.33956,-0.474 -0.45854,-0.474 -0.45854,-1.51988 v -3.06038 h -0.65432 v -0.81404 h 0.65432 v -1.65384 h 0.96861 v 1.65384 h 1.99903 v 0.81404 h -1.99903 v 2.62244 q 0,0.45339 0.0206,0.711 0.0206,0.25245 0.14426,0.474 0.11334,0.20608 0.30912,0.30397 0.20094,0.0927 0.60796,0.0927 0.237,0 0.4946,-0.067 0.25761,-0.0721 0.37096,-0.11849 h 0.0515 z"
         style="fill:#008000"
         id="path335" /></g><text
       xml:space="preserve"
       style="font-size:4.87865px;fill:#008000;stroke-width:0;stroke-linecap:round;stroke-linejoin:round;stroke-miterlimit:6.5;paint-order:stroke fill markers"
       x="96.578804"
       y="123.74429"
       id="text664"
       transform="scale(0.94097844,1.0627236)"><tspan
         id="tspan662"
         style="fill:#ff6600;stroke-width:0"
         x="96.578804"
         y="123.74429">Medical-Dental-Wellness</tspan></text><ellipse
       style="fill:#008000;stroke-width:0;stroke-linecap:round;stroke-linejoin:round;stroke-miterlimit:6.5;paint-order:stroke fill markers"
       id="path837"
       cx="143.80885"
       cy="114.13738"
       rx="2.2023304"
       ry="2.2416577" /><ellipse
       style="fill:#ffffff;stroke-width:0;stroke-linecap:round;stroke-linejoin:round;stroke-miterlimit:6.5;paint-order:stroke fill markers"
       id="path891"
       ry="1.887712"
       rx="1.8090572"
       cy="114.1767"
       cx="143.80885" /><text
       xml:space="preserve"
       style="font-size:3.39611px;fill:#ffffff;stroke-width:0;stroke-linecap:round;stroke-linejoin:round;stroke-miterlimit:6.5;paint-order:stroke fill markers"
       x="133.22745"
       y="123.264"
       id="text895"
       transform="scale(1.0696422,0.93489206)"><tspan
         id="tspan893"
         style="fill:#008000;stroke-width:0"
         x="133.22745"
         y="123.264">R</tspan></text><path
       style="fill:#008000;stroke-width:0;stroke-linecap:round;stroke-linejoin:round;stroke-miterlimit:6.5;paint-order:stroke fill markers"
       d="m 99.722935,114.72728 c 15.255475,-6.12733 27.724475,-5.88834 39.248685,-2.91023 0.84608,0.29113 0.43693,0.77 -0.31463,0.62924 -12.75484,-1.85527 -20.76225,-1.2056 -35.07997,1.80906 -1.79487,0.35217 -4.903561,0.87996 -3.854085,0.47193 z"
       id="path1336" /><path
       style="fill:#008000;stroke-width:0;stroke-linecap:round;stroke-linejoin:round;stroke-miterlimit:6.5;paint-order:stroke fill markers"
       d="m 91.424863,125.00963 c 4.654331,-0.72993 6.181544,-1.01177 10.461077,-0.98318 4.61912,0.0391 14.21943,1.97624 18.16922,1.76973 2.59206,-0.1199 17.61041,-0.86822 26.4673,-0.55058 0.98318,0.0524 0.55059,0.69478 0,0.62923 -9.08068,-0.53616 -25.19977,0.7812 -28.07972,0.90453 -3.07225,0.15878 -10.03104,-0.36965 -14.15712,-0.86449 -2.38586,-0.23947 -7.604005,-0.86326 -12.310175,-0.43331 -0.870948,0.0912 -1.252411,-0.28809 -0.550582,-0.47193 z"
       id="path1392" /><path
       style="fill:#008000;stroke-width:0;stroke-linecap:round;stroke-linejoin:round;stroke-miterlimit:6.5;paint-order:stroke fill markers"
       d="m 91.768453,134.37449 c -0.725615,0.43138 -0.474368,0.642 0.255048,0.45727 3.979745,-1.166 9.276249,-0.38219 11.313339,-0.0123 6.57573,1.89607 13.2693,2.36551 19.36558,1.73831 7.47584,-0.6997 14.19096,-1.88901 21.56872,-2.29449 0.65924,-0.0363 0.938,-0.54592 0.22246,-0.55617 l -18.34019,0.57526 c -5.89452,0.29934 -12.05195,0.83248 -18.25595,0.20338 -5.32816,-0.47068 -13.316245,-1.46361 -16.129007,-0.11123 z"
       id="path1394" /><path
       style="fill:#008000;stroke-width:0;stroke-linecap:round;stroke-linejoin:round;stroke-miterlimit:6.5;paint-order:stroke fill markers"
       d="m 77.47482,110.45585 c -5.292069,-0.849 -10.132418,-1.1104 -7.563945,9.6774 0.963886,3.19141 1.541831,6.30266 1.6129,9.23246 0.106672,4.3012 0.121462,8.64035 3.559503,9.89987 0.674049,0.24896 0.748975,-0.20486 0.333703,-0.55617 -2.335862,-1.71924 -2.811105,-5.05102 -2.947712,-8.67629 -0.193712,-5.00841 -1.777931,-10.11611 -2.002221,-11.62401 -0.91694,-8.68932 3.707231,-6.47668 6.840921,-7.39709 0.45441,-0.14499 0.63757,-0.42058 0.166851,-0.55617 z"
       id="path1396" /><path
       style="fill:#008000;stroke-width:0;stroke-linecap:round;stroke-linejoin:round;stroke-miterlimit:6.5;paint-order:stroke fill markers"
       d="m 78.564827,129.35705 c -0.766033,1.42047 -1.139594,3.87119 -1.494441,6.37103 -0.02622,0.18353 -0.249077,0.33428 -0.314619,0.15731 -0.238672,-2.36028 0.06273,-4.95007 1.415786,-7.00027 0.290949,-0.3527 0.6477,0.0538 0.393274,0.47193 z"
       id="path1398" /><path
       style="fill:#008000;stroke-width:0;stroke-linecap:round;stroke-linejoin:round;stroke-miterlimit:6.5;paint-order:stroke fill markers"
       d="m 78.741799,126.23053 c 0.377483,0.22661 0.805084,0.94543 1.120829,2.14333 0.314618,1.16671 0.576899,1.9027 2.025356,9.87116 0.144657,0.52565 0.647402,0.70108 0.707894,0.35396 l -1.671413,-11.07065 c -0.296518,-1.72289 -1.12281,-1.88502 -2.084347,-1.92704 -0.562742,0.0134 -0.446144,0.41283 -0.09832,0.62924 z"
       id="path1400" /><path
       style="fill:#008000;stroke-width:0;stroke-linecap:round;stroke-linejoin:round;stroke-miterlimit:6.5;paint-order:stroke fill markers"
       d="m 83.425865,139.0153 c -0.399763,0.38122 -0.03809,0.66842 0.389322,0.38932 2.988048,-2.42618 3.668316,-5.32273 4.03225,-8.25916 0.574711,-3.07749 0.917684,-5.7842 1.612899,-8.12011 0.424632,-1.52208 4.212127,-6.6455 -0.472746,-10.84537 -0.301605,-0.26455 -0.445723,0.12899 -0.22247,0.47275 1.546302,2.81275 1.733247,5.36513 0.750835,7.7308 -0.332946,0.86831 -1.493756,5.47299 -2.474969,12.01332 -0.33709,1.96829 -2.006025,5.26531 -3.615121,6.61845 z"
       id="path1402" /><path
       style="fill:#008000;stroke-width:0;stroke-linecap:round;stroke-linejoin:round;stroke-miterlimit:6.5;paint-order:stroke fill markers"
       d="m 79.782937,111.40134 c -0.525514,-0.0506 -0.688243,0.54465 0.250277,0.58398 1.437774,0.049 3.032935,-0.54391 4.504997,-0.88987 1.39283,-0.30452 2.155623,-0.0578 2.975522,0.13904 0.497097,0.13128 0.75696,-0.12319 0.472747,-0.3337 -0.701117,-0.4706 -2.255406,-0.66574 -3.754165,-0.19466 -1.314395,0.42331 -2.845882,0.82458 -4.449378,0.69521 z"
       id="path1495" /><path
       style="fill:#008000;stroke-width:0;stroke-linecap:round;stroke-linejoin:round;stroke-miterlimit:6.5;paint-order:stroke fill markers"
       d="m 71.412541,123.24781 c 3.75226,-0.88406 5.963942,-0.46052 8.398203,-0.11123 2.698697,0.5096 6.268799,0.73209 9.121227,0.11123 0.905424,-2.5865 2.001032,-5.65251 1.334815,-7.95326 -3.071202,0.32365 -8.108137,0.38019 -9.844251,-0.0556 -2.435104,-0.54172 -5.968967,-1.978 -10.177957,-0.38932 -0.328965,2.7994 0.323202,5.5988 1.167963,8.3982 z"
       id="path1537" /><g
       id="g1505"
       transform="matrix(1.0195213,0,0,0.99999999,-2.5897981,-9.2324625)"><g
         aria-label="F rst"
         transform="scale(0.9999427,1.0000573)"
         id="text379"
         style="font-size:7.95165px;fill:#ffffff;stroke-width:0;stroke-linecap:round;stroke-linejoin:round;stroke-miterlimit:6.5;paint-order:stroke fill markers"><path
           d="m 76.53152,126.08829 h -2.923629 v 1.63071 h 2.512069 v 0.68335 h -2.512069 v 2.78385 h -0.768763 v -5.78125 h 3.692392 z"
           id="path314" /><path
           d="m 82.85246,127.64523 h -0.03883 q -0.16307,-0.0388 -0.318376,-0.0543 -0.151423,-0.0194 -0.361086,-0.0194 -0.33779,0 -0.652284,0.15143 -0.314494,0.14754 -0.605692,0.38438 v 3.07893 h -0.729936 v -4.33691 h 0.729936 V 127.49 q 0.434856,-0.34944 0.764881,-0.4931 0.333907,-0.14754 0.679462,-0.14754 0.190249,0 0.275668,0.0117 0.08542,0.008 0.256254,0.0349 z"
           id="path316" /><path
           d="m 86.638035,129.93599 q 0,0.59405 -0.493095,0.97455 -0.489213,0.38049 -1.339511,0.38049 -0.481448,0 -0.885243,-0.11259 -0.399912,-0.11648 -0.671697,-0.25237 v -0.81924 h 0.03883 q 0.345555,0.26014 0.768763,0.41544 0.423208,0.15142 0.811472,0.15142 0.481447,0 0.753232,-0.1553 0.271785,-0.15531 0.271785,-0.48921 0,-0.25626 -0.14754,-0.38827 -0.14754,-0.13201 -0.566866,-0.22519 -0.155305,-0.0349 -0.407677,-0.0815 -0.248489,-0.0466 -0.454269,-0.10095 -0.570749,-0.15142 -0.811472,-0.44262 -0.236841,-0.29508 -0.236841,-0.72217 0,-0.2679 0.108713,-0.50474 0.112597,-0.23684 0.33779,-0.42321 0.217428,-0.18248 0.551335,-0.28732 0.33779,-0.10871 0.753233,-0.10871 0.388264,0 0.784294,0.0971 0.399912,0.0932 0.663931,0.22907 v 0.78041 h -0.03883 q -0.27955,-0.20578 -0.679462,-0.34555 -0.399913,-0.14366 -0.784294,-0.14366 -0.399912,0 -0.67558,0.15531 -0.275667,0.15142 -0.275667,0.45427 0,0.2679 0.166953,0.40379 0.163071,0.13589 0.52804,0.22131 0.201897,0.0466 0.450386,0.0932 0.252372,0.0466 0.419325,0.0854 0.508626,0.11648 0.784294,0.39991 0.275667,0.28732 0.275667,0.761 z"
           id="path318" /><path
           d="m 89.934399,131.14738 q -0.20578,0.0543 -0.450386,0.0893 -0.240724,0.0349 -0.430974,0.0349 -0.663931,0 -1.009487,-0.3572 -0.345555,-0.3572 -0.345555,-1.14538 v -2.30629 h -0.493095 v -0.61346 h 0.493095 v -1.24633 h 0.729937 v 1.24633 h 1.506465 v 0.61346 h -1.506465 v 1.97626 q 0,0.34168 0.01553,0.53581 0.01553,0.19025 0.108714,0.3572 0.08542,0.15531 0.232958,0.22908 0.151423,0.0699 0.458152,0.0699 0.178601,0 0.372733,-0.0505 0.194132,-0.0544 0.279551,-0.0893 h 0.03883 z"
           id="path320" /></g><path
         style="fill:#ffffff;stroke-width:0;stroke-linecap:round;stroke-linejoin:round;stroke-miterlimit:6.5;paint-order:stroke fill markers"
         id="path959"
         d="m 79.588275,125.55592 a 1.0567276,1.251388 0 0 1 -0.144378,0.63141" /><path
         style="fill:#ffffff;stroke-width:0;stroke-linecap:round;stroke-linejoin:round;stroke-miterlimit:6.5;paint-order:stroke fill markers"
         id="path963"
         d="m 79.866375,125.83403 a 1.4182397,1.4182397 0 0 1 -1.417589,1.41824 1.4182397,1.4182397 0 0 1 -1.41889,-1.41694 1.4182397,1.4182397 0 0 1 1.416286,-1.41954 1.4182397,1.4182397 0 0 1 1.420191,1.41564 l -1.418238,0.003 z" /><rect
         style="fill:#ffffff;stroke-width:0;stroke-linecap:round;stroke-linejoin:round;stroke-miterlimit:6.5;paint-order:stroke fill markers"
         id="rect1017"
         width="0.7786414"
         height="3.7263556"
         x="77.919762"
         y="127.53033" /><path
         style="fill:#ff6600;stroke-width:0;stroke-linecap:round;stroke-linejoin:round;stroke-miterlimit:6.5;paint-order:stroke fill markers"
         d="m 77.391395,124.88852 c -0.194535,0.2031 -0.342406,0.57119 -0.292837,0.53672 0.199745,-0.13889 0.315211,-0.19525 0.435898,-0.25367 0.598193,-0.28954 1.207852,0.0174 0.830239,0.8571 -0.262948,0.62391 0.615716,1.27886 1.084538,0.87598 1.440705,-1.30104 -0.585021,-3.44217 -2.057838,-2.01613 z"
         id="path1127" /><path
         style="fill:#ffffff;stroke-width:0;stroke-linecap:round;stroke-linejoin:round;stroke-miterlimit:6.5;paint-order:stroke fill markers"
         id="path1234"
         d="m 78.837664,126.30306 a 0.28503838,0.27113408 0 0 1 0.294131,-0.26034 0.28503838,0.27113408 0 0 1 0.275629,0.27805 0.28503838,0.27113408 0 0 1 -0.290473,0.26403 0.28503838,0.27113408 0 0 1 -0.279484,-0.27455" /><path
         style="fill:#ff6600;stroke-width:0;stroke-linecap:round;stroke-linejoin:round;stroke-miterlimit:6.5;paint-order:stroke fill markers"
         id="path1313"
         d="m 78.045092,125.69507 a 0.26545948,0.27037537 0 0 1 -0.265338,0.27037 0.26545948,0.27037537 0 0 1 -0.265581,-0.27012 0.26545948,0.27037537 0 0 1 0.265094,-0.27063 0.26545948,0.27037537 0 0 1 0.265825,0.26988 l -0.265459,5e-4 z" /></g></g></svg>
